<svg xmlns="http://www.w3.org/2000/svg" xmlns:xlink="http://www.w3.org/1999/xlink" width="124px" height="53px" viewBox="0 0 124 53" version="1.1">
    <title>logo</title>
    <g id="Page-1" stroke="none" stroke-width="1" fill="none" fill-rule="evenodd">
        <g id="logo" transform="translate(0.000000, 0.000000)">
            <path d="M6.574,19.984 C6.574,9.597 12.884,1.182 20.379,1.182 C28.137,1.182 34.183,9.597 34.183,19.984 C34.183,30.37 28.006,38.785 20.379,38.785 C12.884,38.785 6.574,30.372 6.574,19.984 L6.574,19.984 Z M112.548,39.443 C112.548,39.443 110.312,44.441 104.002,44.441 C98.347,44.441 95.586,39.443 95.586,39.443 L45.623,39.443 C45.623,39.443 45.493,40.232 44.702,42.861 C43.782,45.623 42.73,46.938 42.73,46.938 C36.945,52.854 32.605,45.886 27.873,42.073 C26.295,40.891 24.585,40.101 23.009,39.837 C33.134,38.655 41.023,30.239 41.023,19.984 C41.023,8.94 31.819,0 20.642,0 C9.466,0 8.8817842e-16,8.94 8.8817842e-16,19.984 C8.8817842e-16,29.976 7.626,38.259 17.487,39.707 C6.049,42.073 5.391,52.593 5.391,52.593 C5.391,52.593 5.655,52.066 6.313,50.883 C7.101,49.568 9.074,46.544 11.31,44.704 C13.807,42.732 18.674,40.364 23.799,42.337 C29.058,44.177 30.9,51.541 37.867,51.804 C45.099,52.067 47.072,43.652 47.466,41.285 L94.274,41.285 C95.195,42.206 98.086,46.282 103.871,46.282 C110.314,46.282 112.681,42.206 113.338,41.285 L123.725,41.285 L123.725,39.445 L112.548,39.445 L112.548,39.443 Z" id="Fill-1" fill="#DB363B"/>
            <path d="M60.0706,31.3897 C59.7936,31.9187 59.3556,32.3997 58.7596,32.8087 C58.1956,33.1937 57.4626,33.4567 56.5786,33.6017 C55.6896,33.7457 54.5286,33.8187 53.1346,33.8187 L49.1556,33.8187 L49.1556,24.9587 L53.9346,24.9587 C54.9866,24.9587 55.8936,25.0017 56.6266,25.0797 C57.3536,25.1577 57.9856,25.3317 58.4896,25.6017 C59.2406,25.9927 59.7696,26.4737 60.0526,27.0327 C60.3416,27.5917 60.4856,28.3677 60.4856,29.3227 C60.4856,30.1637 60.3466,30.8617 60.0706,31.3897 L60.0706,31.3897 Z M49.1556,15.2887 L52.7196,15.2887 C53.7836,15.2887 54.6856,15.3257 55.4066,15.3907 C56.1216,15.4637 56.8906,15.6437 57.3896,15.9267 C57.8106,16.1667 58.1166,16.4847 58.3036,16.8697 C58.4956,17.2607 58.5916,17.7467 58.5916,18.3177 C58.5916,19.0097 58.4896,19.6167 58.2796,20.1207 C58.0746,20.6197 57.7206,21.0347 57.2276,21.3477 C56.7286,21.6657 56.1816,21.8757 55.5986,21.9777 C55.0096,22.0807 54.0486,22.1287 53.0506,22.1287 L49.1556,22.1287 L49.1556,15.2887 Z M62.5166,25.0017 C61.5786,23.9137 60.2866,23.1857 58.6756,22.8437 L58.6756,22.8017 C59.6376,22.3147 60.4796,21.6657 61.0556,20.8667 C61.6446,20.0557 61.9456,19.0567 61.9456,17.9037 C61.9456,16.8817 61.6806,15.9927 61.2786,15.2587 C60.8756,14.5257 60.2146,13.9127 59.3246,13.4437 C58.5196,13.0357 57.6726,12.7587 56.7946,12.6267 C55.9236,12.5007 54.5896,12.4337 52.8346,12.4337 L45.6226,12.4337 L45.6226,36.6847 L54.2406,36.6847 C55.9116,36.6847 57.3116,36.5347 58.3996,36.2277 C59.4876,35.9277 60.4976,35.4107 61.4106,34.6957 C62.1796,34.1007 62.8046,33.3257 63.2616,32.4057 C63.7176,31.4867 63.9466,30.4047 63.9466,29.2017 C63.9406,27.5137 63.4666,26.1007 62.5166,25.0017 L62.5166,25.0017 Z" id="Fill-3" fill="#000206"/>
            <path d="M78.5511,32.1534 C77.7581,32.7784 76.8861,33.2954 75.9731,33.6974 C75.0531,34.1004 74.1881,34.3104 73.4121,34.3104 C72.5411,34.3104 71.8681,34.2024 71.4111,33.9924 C70.9601,33.7824 70.5881,33.4394 70.3061,32.9764 C70.0291,32.5194 69.8491,31.9664 69.7651,31.3244 C69.6801,30.6744 69.6381,29.8874 69.6381,28.9734 L69.6381,18.5824 L66.4711,18.5824 L66.4711,30.2654 C66.4711,32.5194 67.0121,34.2514 68.0751,35.4174 C69.1401,36.5894 70.6481,37.1774 72.5591,37.1774 C73.6961,37.1774 74.7531,36.9554 75.6971,36.5224 C76.6041,36.1014 77.5661,35.5014 78.5571,34.7254 L78.5571,36.6734 L81.6701,36.6734 L81.6701,18.5824 L78.5571,18.5824 L78.5571,32.1534 L78.5511,32.1534 Z" id="Fill-5" fill="#000206"/>
            <path d="M90.5833,19.0694 C89.7053,19.5084 88.6363,20.1334 87.4703,21.0644 L87.4703,18.5884 L84.3033,18.5884 L84.3033,36.6784 L87.4703,36.6784 L87.4703,23.6854 C88.2633,23.0424 89.1043,22.5074 89.9643,22.0984 C90.8293,21.6904 91.7373,21.4794 92.6623,21.4794 C93.2393,21.4794 93.7503,21.5334 94.1713,21.5814 C94.5923,21.6294 94.9943,21.7374 95.4453,21.8464 L95.3123,18.5824 C95.3073,18.5824 92.7293,17.9934 90.5833,19.0694" id="Fill-7" fill="#000206"/>
            <path d="M111.2093,31.3956 C111.2093,33.0606 110.5133,34.4436 109.1363,35.5126 C107.7663,36.5766 105.9273,37.1116 103.5593,37.1116 C102.2193,37.1116 100.9753,36.9496 99.8563,36.6306 C98.7383,36.3126 97.7893,35.9576 97.0323,35.5796 L96.9963,35.5606 L96.9963,32.0446 L97.2363,32.0446 L97.2543,32.0566 C98.2043,32.7726 99.2793,33.3496 100.4453,33.7756 C101.6113,34.1966 102.7413,34.4136 103.8123,34.4136 C105.1333,34.4136 106.0593,34.1966 106.8043,33.7756 C107.5373,33.3556 107.9103,32.6886 107.9103,31.7866 C107.9103,31.0956 107.7123,30.5666 107.3143,30.2116 C106.9123,29.8516 106.2453,29.5396 105.0983,29.2866 C104.6643,29.1906 104.1003,29.0766 103.4083,28.9436 C102.7113,28.8116 102.0683,28.6736 101.4973,28.5236 C99.9043,28.1026 98.5763,27.4716 97.9093,26.6476 C97.2363,25.8246 96.8993,24.8026 96.8993,23.6066 C96.8993,22.8556 97.0563,22.1406 97.3683,21.4736 C97.6813,20.8066 98.3363,20.2056 98.9673,19.6886 C99.5743,19.1776 100.3613,18.7696 101.2993,18.4686 C102.2363,18.1676 103.2943,18.0176 104.4543,18.0176 C105.5363,18.0176 106.6423,18.1496 107.7483,18.4146 C108.7933,18.6666 109.6833,18.9676 110.3983,19.3156 L110.3983,22.7536 L110.3203,22.7536 L110.3023,22.7416 C109.5323,22.1766 108.5833,21.6896 107.4833,21.2986 C106.3843,20.9086 105.2893,20.7096 104.2313,20.7096 C103.1323,20.7096 102.1943,20.9206 101.4433,21.3416 C100.6983,21.7556 100.3253,22.3746 100.3253,23.1926 C100.3253,23.9136 100.5543,24.4666 100.9983,24.8336 C101.4433,25.2056 102.1773,25.5126 103.1803,25.7466 C103.7393,25.8726 104.3703,26.0046 105.0673,26.1376 C105.7593,26.2636 106.3413,26.3836 106.8103,26.4916 C108.2293,26.8166 109.3403,27.3876 110.1093,28.1806 C110.8793,28.9866 111.2093,30.0676 111.2093,31.3956" id="Fill-9" fill="#000206"/>
            <path d="M123.723,21.2569 L123.723,18.5769 L117.436,18.5769 L117.436,13.2519 L114.263,13.2519 L114.263,18.5769 L112.207,18.5769 L112.207,21.2569 L114.263,21.2569 L114.263,30.7049 C114.263,32.9039 114.713,34.5449 115.681,35.5489 C116.649,36.5529 118.121,37.0389 119.978,37.0389 C120.507,37.0389 121.12,36.9909 121.793,36.8959 C122.466,36.7989 123.104,36.6729 123.674,36.5229 L123.716,36.5109 L123.716,33.6679 L123.482,33.6679 L123.47,33.6739 C123.236,33.7699 122.845,33.8899 122.31,34.0339 C121.776,34.1789 121.258,34.2509 120.772,34.2509 C119.93,34.2509 119.299,34.1539 118.897,33.9559 C118.494,33.7639 118.175,33.4509 117.941,33.0299 C117.689,32.5739 117.538,32.0809 117.496,31.5589 C117.454,31.0289 117.43,30.2779 117.43,29.3339 L117.43,21.2569 L123.723,21.2569 Z" id="Fill-11" fill="#000206"/>
        </g>
    </g>
</svg>