<svg version="1.0" id="Capa_1" xmlns="http://www.w3.org/2000/svg" xmlns:xlink="http://www.w3.org/1999/xlink" x="0px" y="0px" width="1200px" height="1200px" viewBox="0 0 1200 1200" enable-background="new 0 0 1200 1200" xml:space="preserve">
<path fill="#008B89" d="M418.233,1012.18c5.525,0,8.961-0.104,9.898-0.135c140.913-5.376,304.387-34.741,448.422-211.805&#10;&#9;c144.297-177.318,135.702-366.376,133.105-397.943c23.405-17.76,93.279-79.366,98.856-108.282l2.927-15.156l-13.842,6.83&#10;&#9;c-20.487,10.093-52.856,18.823-77.003,24.498c24.986-21.922,59.218-58.612,62.677-97.382l1.372-15.394l-13.089,8.222&#10;&#9;c-47.516,29.874-107.452,43.456-123.459,46.705c-17.904-18.852-111.039-106.021-246.009-40.461&#10;&#9;c-104.155,50.6-116.444,143.377-114.066,196.03c-0.103,5.546,3.107,11.97,6.368,14.411c2.07,1.55,6.946,2.156,9.762-2.69&#10;&#9;c-4.511-44.844-0.827-142.718,104.637-193.945c138.826-67.492,226.96,35.491,230.645,39.892l2.837,3.415l4.367-0.764&#10;&#9;c2.783-0.48,63.433-11.229,117.882-40.746c-15.978,47.32-78.111,90.268-78.807,90.747L955.778,338.7l35.655-6.603&#10;&#9;c2.582-0.466,54.434-10.17,93.24-24.38c-19.864,27.554-67.318,70.561-87.468,84.697l-3.788,2.651l0.584,4.597&#10;&#9;c0.255,2.006,23.825,202.684-129.339,390.906c-140.18,172.315-299.633,200.902-437.101,206.142&#10;&#9;c-1.814,0.135-170.445,5.091-288.7-76.566c25.86,1.109,67.91,0.943,112.797-7.368c71.286-13.194,160.725-75.1,164.707-78.962&#10;&#9;l3.536-3.579l-1.836-4.656c-1.878-4.792-6.161-4.958-9.944-5.108c-45.785-1.797-127.406-20.516-172.353-123.259&#10;&#9;c37.632,4.672,75.954-6.29,77.765-6.828l33.176-9.719l-34.172-5.211c-1.467-0.225-142.935-23.676-154.726-182.665&#10;&#9;c35.122,16.113,80.459,20.89,82.592,21.1l32.826,3.34l-27.996-17.477c-5.758-3.594-137.131-88.022-62.176-250.499&#10;&#9;c51.244,65.743,185.919,169.577,344.278,196.765c12.205,2.144,13.854-11.797,4.424-14.919&#10;&#9;c-163.164-27.185-300.699-138.147-343.723-200.954l-7.299-10.662L174.882,231c-69.799,137.006-0.682,226.51,38.839,263.066&#10;&#9;c-18.607-3.804-42.703-10.349-60.319-20.847l-11.975-7.127l0.382,13.927c3.671,132.707,89.223,183.472,136.947,201.517&#10;&#9;c-15.889,1.917-35.686,2.591-53.543-1.826l-14.241-3.535l5.233,13.717c42.229,110.5,124.711,137.979,172.606,144.299&#10;&#9;c-28.69,18.599-88.313,53.954-139.939,63.524c-69.432,12.818-133.793,5.332-134.422,5.286l-25.892-3.101l20.088,16.622&#10;&#9;C216.924,1006.071,376.721,1012.18,418.233,1012.18z" style="fill: rgb(245, 245, 245);"/>
</svg>