<?xml version="1.0" encoding="UTF-8"?>
<svg xmlns="http://www.w3.org/2000/svg" xmlns:xlink="http://www.w3.org/1999/xlink" viewBox="0 0 256 256" width="256px" height="256px">
<g id="surface34718876">
<rect x="0" y="0" width="256" height="256" style="fill:rgb(0%,0%,0%);fill-opacity:1;stroke:none;"/>
<path style=" stroke:none;fill-rule:nonzero;fill:rgb(100%,100%,100%);fill-opacity:1;" d="M 128 24 C 70.5625 24 24 70.5625 24 128 C 24 177.109375 58.046875 218.238281 103.820312 229.144531 C 101.453125 228.578125 99.105469 227.949219 96.800781 227.226562 L 96.800781 203.398438 C 96.800781 203.398438 92.898438 204.699219 87.699219 204.699219 C 73.152344 204.699219 67.109375 191.71875 65.601562 185.199219 C 64.683594 181.226562 62.292969 177.464844 59.722656 175.164062 C 56.65625 172.429688 55.21875 172.421875 55.199219 171.484375 C 55.160156 169.519531 57.832031 169.601562 59.101562 169.601562 C 65.601562 169.601562 70.527344 176.515625 72.816406 180.09375 C 78.484375 188.921875 84.566406 190.398438 87.699219 190.398438 C 91.601562 190.398438 94.96875 189.816406 97.289062 188.695312 C 98.359375 181.144531 101.71875 174.414062 107.199219 169.601562 C 82.8125 164.722656 65.601562 150.734375 65.601562 128 C 65.601562 116.289062 70.300781 105.523438 78.132812 96.832031 C 77.332031 94.5625 76 89.976562 76 82.5 C 76 77.558594 76.34375 71.496094 78.601562 65.601562 C 78.601562 65.601562 93.433594 65.703125 107.421875 78.953125 C 113.875 77.070312 120.785156 76 128 76 C 135.214844 76 142.125 77.070312 148.578125 78.953125 C 162.566406 65.703125 177.398438 65.601562 177.398438 65.601562 C 179.667969 71.496094 180 77.558594 180 82.5 C 180 90.558594 178.929688 95.261719 178.273438 97.289062 C 185.863281 105.898438 190.398438 116.496094 190.398438 128 C 190.398438 150.734375 173.1875 164.722656 148.800781 169.601562 C 155.3125 175.320312 159.199219 183.652344 159.199219 193 L 159.199219 227.226562 C 156.894531 227.953125 154.550781 228.578125 152.179688 229.144531 C 197.953125 218.238281 232 177.109375 232 128 C 232 70.5625 185.4375 24 128 24 Z M 135.253906 231.71875 C 132.855469 231.886719 130.441406 232 128 232 C 130.441406 232 132.851562 231.882812 135.253906 231.71875 Z M 151.144531 229.382812 C 146.488281 230.445312 141.714844 231.1875 136.84375 231.601562 C 141.714844 231.1875 146.488281 230.441406 151.144531 229.382812 Z M 128 232 C 125.558594 232 123.144531 231.886719 120.746094 231.71875 C 123.148438 231.882812 125.558594 232 128 232 Z M 119.152344 231.601562 C 114.285156 231.1875 109.507812 230.445312 104.855469 229.382812 C 109.511719 230.441406 114.285156 231.1875 119.152344 231.601562 Z M 119.152344 231.601562 "/>
</g>
</svg>
