<svg version="1.0" id="Capa_1" xmlns="http://www.w3.org/2000/svg" xmlns:xlink="http://www.w3.org/1999/xlink" x="0px" y="0px" width="1200px" height="1200px" viewBox="0 0 1200 1200" enable-background="new 0 0 1200 1200" xml:space="preserve">
<g>
	<path fill="#99287B" d="M208.996,347.708c66.629,0,120.834-54.27,120.834-120.996c0-66.724-54.206-120.997-120.834-120.997&#10;&#9;&#9;c-66.773,0-121.093,54.273-121.093,120.997C87.903,293.437,142.222,347.708,208.996,347.708z M208.996,122.43&#10;&#9;&#9;c57.406,0,104.12,46.78,104.12,104.281c0,57.503-46.714,104.283-104.12,104.283c-57.551,0-104.38-46.78-104.38-104.283&#10;&#9;&#9;C104.616,169.21,151.445,122.43,208.996,122.43z" style="fill: rgb(236, 236, 239);"/>
	<path fill="#99287B" d="M87.903,1073.097c0,11.687,9.55,21.188,21.285,21.188h199.537c11.637,0,21.105-9.501,21.105-21.188V423.084&#10;&#9;&#9;c0-11.768-9.468-21.334-21.105-21.334H109.188c-11.735,0-21.285,9.566-21.285,21.334V1073.097z M104.616,423.084&#10;&#9;&#9;c0-2.498,2.091-4.62,4.572-4.62h199.537c2.382,0,4.39,2.122,4.39,4.62v650.013c0,2.466-1.974,4.473-4.39,4.473H109.188&#10;&#9;&#9;c-2.513,0-4.572-2.008-4.572-4.473V423.084z" style="fill: rgb(236, 236, 239);"/>
	<path fill="#99287B" d="M1112.037,614.656c0.133-32.432,0.18-42.829-1.338-47.105c-8.945-32.318-59.037-175.382-242.073-175.382&#10;&#9;&#9;c-94.751,0-158.898,44.069-191.264,73.661v-42.747c0-11.768-9.466-21.334-21.104-21.334H542.605&#10;&#9;&#9;c-17.935,1.072-12.233,16.22-1.286,16.715h114.938c2.416,0,4.39,2.074,4.39,4.62v84.043l14.477-15.604&#10;&#9;&#9;c23.08-24.843,88.108-82.639,193.502-82.639c172.998,0,218.699,136.176,226.24,164.104c0.163,1.714,0.589,9.384,0.456,41.638&#10;&#9;&#9;v458.472c0,2.515-2.006,4.473-4.569,4.473H891.215c-2.61,0-4.57-1.926-4.57-4.473V706.21c0-72.211-8.504-137.026-111.185-137.026&#10;&#9;&#9;c-73.729,0-114.062,62.058-114.812,106.992v396.922c0,2.515-1.924,4.473-4.39,4.473H456.718c-2.464,0-4.406-1.958-4.406-4.473&#10;&#9;&#9;V602.146c-3.085-12.053-12.85-13.462-16.713,0.185v470.767c0,11.687,9.466,21.188,21.119,21.188h199.539&#10;&#9;&#9;c11.638,0,21.104-9.501,21.104-21.188V676.323c0.636-37.918,35.075-90.425,98.098-90.425c87.893,0,94.472,47.644,94.472,120.312&#10;&#9;&#9;v366.888c0,11.687,9.549,21.188,21.283,21.188h199.539c11.736,0,21.283-9.501,21.283-21.188V614.656z" style="fill: rgb(236, 236, 239);"/>
</g>
</svg>